<svg xmlns="http://www.w3.org/2000/svg" version="1.1" xmlns:xlink="http://www.w3.org/1999/xlink" xmlns:svgjs="http://svgjs.dev/svgjs" viewBox="0 0 800 800"><defs><linearGradient x1="50%" y1="0%" x2="50%" y2="100%" id="wwwhirl-grad"><stop stop-color="hsl(205, 69%, 60%)" stop-opacity="1" offset="45%"></stop><stop stop-color="hsl(205, 69%, 80%)" stop-opacity="1" offset="100%"></stop></linearGradient></defs><g stroke-width="2" stroke="url(#wwwhirl-grad)" fill="none" stroke-linecap="round"><path d="M37.00000251770027 446.5935549478726C50.75000289917 424.11230432416954 75.50000358581553 345.69605214864765 103.000004348755 338.6835519540981C130.50000511169446 331.6710517595485 141.5000054168703 404.4773037794308 169.00000617980973 412.9335540140347C196.5000069427492 421.38980424863854 207.50000724792503 369.1673027998165 235.00000801086446 379.27355308019673C262.500008773804 389.379803360577 273.5000090789798 467.63105553152127 301.0000098419193 461.4435553598599C328.50001060485874 455.2560551881985 339.5000109100345 351.42980230772054 367.000011672974 349.5735522562221C394.50001243591345 347.7173022047237 405.5000127410893 446.9648049581723 433.0000135040287 452.5335551126675C460.5000142669682 458.10230526716276 471.50001457214404 374.44730294630085 499.0000153350834 376.3035529977993C526.5000160980228 378.1598030492977 537.5000164031987 460.20605532552764 565.0000171661382 461.4435553598599C592.5000179290777 462.6810553941922 603.5000182342535 382.4498031683163 631.000018997193 382.2435531625942C658.5000197601325 382.03730315687216 669.5000200653083 463.9598054296689 697.0000208282477 460.4535553323941C724.5000215911871 456.9473052351193 749.2500222778326 385.21355324499166 763.0000226593024 365.41355269567526 " transform="rotate(99, 400, 400)"></path><path d="M48.00000244140632 445.18162568805155C61.33333614464971 423.38162508324865 85.3333368104878 347.3416229736516 112.00000421697456 340.5416227849975C138.6666716234613 333.7416225963434 149.33333858605602 404.3416245550171 176.00000599254278 412.5416247825118C202.66667339902952 420.7416250100065 213.33334036162427 370.1016236050881 240.000007768111 379.901623876972C266.6666751745978 389.70162414885584 277.3333421371925 465.58162625401394 304.00000954367925 459.5816260875544C330.66667695016605 453.5816259210949 341.3333439127607 352.90162312790414 368.00001131924745 351.1016230779663C394.66667872573424 349.3016230280284 405.33334568832896 445.5416256980391 432.00001309481576 450.9416258478527C458.66668050130244 456.34162599766626 469.3333474638972 375.22162374713355 496.0000148703839 377.0216237970714C522.6666822768707 378.8216238470093 533.3333492394653 458.38162605426254 560.0000166459522 459.5816260875544C586.666684052439 460.78162612084634 597.3333510150337 382.9816239624212 624.0000184215204 382.7816239568725C650.6666858280073 382.5816239513239 661.3333527906019 462.021626155248 688.0000201970887 458.6216260609209C714.6666876035754 455.2216259665938 738.6666882694134 385.6616240367731 752.0000219726569 366.46162350410265 " transform="rotate(96, 400, 400)"></path><path d="M59.00000236511238 443.76971168701965C71.9166693901294 422.65096110111676 95.16667003516005 348.9872090574447 121.00000408519412 342.399708874686C146.83333813522813 335.8122086919273 157.1666717552418 404.2059605893925 183.0000058052758 412.14971080977796C208.83333985530987 420.09346103016344 219.1666734753235 371.0359596691488 245.00000752535757 380.52970993253626C270.8333415753916 390.0234601959238 281.1666751954052 463.5322122352957 307.0000092454393 457.71971207403806C332.83334329547336 451.9072119127804 343.16667691548696 354.3734592068768 369.00001096552097 352.6297091584995C394.83334501555504 350.8859591101222 405.1666786355687 444.1184616966951 431.0000126856027 449.349711841827C456.8333467356368 454.58096198695887 467.16668035565044 375.9959598067553 493.0000144056845 377.7397098551326C518.8333484557185 379.4834599035099 529.1666820757321 456.5572120417865 555.0000161257661 457.71971207403806C580.8333501758003 458.88221210628956 591.1666837958139 383.5134600153152 617.000017845848 383.31971000993997C642.8333518958821 383.1259600045647 653.1666855158957 460.08346213961613 679.0000195659296 456.78971204823677C704.8333536159636 453.49596195685746 728.0833542609943 386.1097100873436 741.0000212860114 367.5097095713191 " transform="rotate(93, 400, 400)"></path><path d="M70.00000228881842 442.35778242719863C82.50000263560909 421.92028186019587 105.00000325983231 350.6327798824487 130.00000395341365 344.25777970558545C155.00000464699497 337.8827795287222 165.00000492442751 404.0702813649788 190.00000561800886 411.75778157825505C215.0000063115902 419.44528179153133 225.00000658902275 371.97028047442035 250.00000728260406 381.1577807293115C275.00000797618543 390.34528098420265 285.000008253618 461.48278295778834 310.0000089471993 455.8577828017326C335.00000964078066 450.23278264567676 345.00000991821315 355.8452800270604 370.0000106117945 354.1577799802437C395.00001130537584 352.4702799334269 405.0000115828084 442.69528243656197 430.0000122763897 447.7577825770122C455.000012969971 452.8202827174624 465.0000132474036 376.770280607588 490.00001394098496 378.4577806544047C515.0000146345662 380.14528070122145 525.0000149119987 454.7327827705214 550.0000156055801 455.8577828017326C575.0000162991615 456.9827828329437 585.000016576594 384.04528080942015 610.0000172701755 383.8577808042183C635.0000179637568 383.67028079901644 645.0000182411893 458.1452828651952 670.0000189347705 454.9577827767636C695.0000196283519 451.77028268833203 717.5000202525752 386.55778087912506 730.0000205993658 368.55778037974653 " transform="rotate(90, 400, 400)"></path><path d="M81.00000221252448 440.9458646114694C93.08333588108879 421.1896140633668 114.83333648450457 352.27836215154446 139.0000038216332 346.11586198057665C163.1666711587618 339.95336180960885 172.83333809361326 403.9346135846569 197.0000054307419 411.36586379082394C221.16667276787052 418.797113996991 230.833339702722 372.90461272378377 255.00000703985063 381.7858629701785C279.16667437697924 390.6671132165733 288.83334131183074 459.4333651243728 313.00000864895935 453.9958649735189C337.16667598608797 448.55836482266494 346.8333429209394 357.3171122913358 371.000010258068 355.68586224607964C395.16667759519663 354.05461220082344 404.8333445300481 441.27211462052065 429.00001186717674 446.1658647562892C453.16667920430535 451.05961489205777 462.8333461391569 377.54461285251244 487.00001347628546 379.17586289776864C511.1666808134141 380.80711294302483 520.8333477482655 452.9083649433481 545.0000150853941 453.9958649735189C569.1666824225229 455.08336500368966 578.8333493573742 384.5771130476169 603.000016694503 384.3958630425884C627.1666840316316 384.21461303755996 636.8333509664831 456.20711503486615 661.0000183036116 453.1258649493823C685.1666856407402 450.04461486389835 706.9166862441559 387.0058631149983 719.0000199127203 369.6058626322657 " transform="rotate(87, 400, 400)"></path><path d="M92.00000213623053 439.5339315369512C103.6666691265685 420.45893100774856 124.66666970917683 353.9239291618512 148.00000368985275 347.97392899677885C171.33333767052864 342.0239288317065 180.666671262799 403.798930545546 204.00000524347493 410.9739307446038C227.33333922415085 418.14893094366164 236.66667281642125 373.8389297143581 260.00000679709717 382.41392995225647C283.33334077777306 390.98893019015486 292.66667437004344 457.3839320321682 316.0000083507193 452.1339318865161C339.3333423313953 446.88393174086406 348.66667592366565 358.7889292968221 372.00000990434154 357.2139292531265C395.3333438850174 355.6389292094309 404.6666774772878 439.8489315456903 428.00001145796375 444.57393167677714C451.3333454386397 449.298931807864 460.6666790309101 378.3189298386479 484.000013011586 379.8939298823435C507.33334699226185 381.4689299260391 516.6666805845323 451.0839318573857 540.0000145652082 452.1339318865161C563.3333485458841 453.18393191564655 572.6666821381544 385.10893002702454 596.0000161188304 384.9339300221695C619.3333500995063 384.7589300173144 628.6666836917767 454.26893194574797 652.0000176724526 451.2939318632118C675.3333516531285 448.3189317806756 696.3333522357368 387.4539300920825 708.0000192260748 370.65392962599583 " transform="rotate(84, 400, 400)"></path><path d="M103.00000205993659 438.1219984624329C114.25000237204819 419.7282479521304 134.5000029338491 355.5694961721579 157.00000355807228 349.831996012981C179.50000418229547 344.09449585380406 188.5000044319848 403.663247506435 211.00000505620795 410.58199769838365C233.50000568043117 417.50074789033226 242.50000593012047 374.77324670493243 265.0000065543437 383.04199693433446C287.5000071785669 391.3107471637365 296.5000074282562 455.3344989399636 319.0000080524794 450.2719987995134C341.5000086767026 445.2094986590632 350.50000892639184 360.26074630230846 373.00000955061506 358.7419962601734C395.5000101748383 357.2232462180383 404.5000104245276 438.42574847085984 427.00001104875076 442.9819985972651C449.500011672974 447.5382487236703 458.5000119226633 379.0932468247833 481.00001254688647 380.61199686691833C503.50001317110963 382.1307469090534 512.5000134207988 449.25949877142335 535.0000140450221 450.2719987995134C557.5000146692455 451.28449882760344 566.5000149189347 385.64074700643226 589.0000155431579 385.47199700175054C611.5000161673811 385.30324699706887 620.5000164170704 452.33074885662984 643.0000170412935 449.46199877704134C665.5000176655168 446.5932486974529 685.7500182273176 387.90199706916667 697.0000185394292 371.70199661972595 " transform="rotate(81, 400, 400)"></path><path d="M114.00000198364263 436.7100882760982C124.83333561752788 418.9975877846958 144.33333615852135 357.2150860706482 166.0000034262918 351.6900859173668C187.6666706940623 346.1650857640853 196.3333376011705 403.52758735550765 218.000004868941 410.1900875403471C239.6666721367115 416.85258772518654 248.3333390438197 375.7075865836904 270.0000063115902 383.670086804596C291.6666735793607 391.63258702550166 300.33334048646896 453.2850887359426 322.0000077542394 448.4100886006943C343.6666750220099 443.5350884654459 352.3333419291181 361.7325861959784 374.0000091968886 360.2700861554039C395.6666764646591 358.80758611482935 404.3333433717673 437.00258828421306 426.0000106395378 441.3900884059366C447.66667790730827 445.77758852766016 456.3333448144165 379.8675866991023 478.00001208218697 381.3300867396768C499.66667934995746 382.7925867802513 508.33334625706556 447.4350885736446 530.0000135248362 448.4100886006943C551.6666807926067 449.3850886277439 560.3333476997147 386.1725868740235 582.0000149674854 386.01008686951525C603.6666822352558 385.847586865007 612.3333491423641 450.39258865569525 634.0000164101345 447.63008857905453C655.666683677905 444.8675885024138 675.1666842188985 388.35008693443444 686.0000178527837 372.75008650163966 " transform="rotate(78, 400, 400)"></path><path d="M125.00000190734869 435.29814757218537C135.41666886300757 418.2668970996831 154.1666693831936 358.86064545156046 175.00000329451137 353.5481453041744C195.83333720582914 348.23564515678834 204.16667077035626 403.3918966870022 225.00000468167406 409.7981468647324C245.83333859299182 416.20439704246263 254.16667215751897 376.64189594487016 275.00000606883674 384.29814615727946C295.8333399801545 391.9543963696887 304.16667354468166 451.2356480143435 325.0000074559994 446.548147884297C345.8333413673172 441.8606477542505 354.16667493184434 363.2043955720702 375.00000884316205 361.79814553305624C395.8333427544799 360.3918954940423 404.166676319007 435.57939757998815 425.0000102303248 439.79814769703C445.83334414164256 444.01689781407185 454.1666777061697 380.6418960558432 475.0000116174875 382.04814609485715C495.83334552880524 383.45439613387106 504.1666790933323 445.6106478582877 525.0000130046501 446.548147884297C545.8333469159679 447.4856479103063 554.166680480495 386.70439622403666 575.0000143918128 386.5481462197018C595.8333483031306 386.3918962153669 604.1666818676579 448.4543979371826 625.0000157789755 445.79814786348953C645.8333496902933 443.14189778979653 664.5833502104794 388.7981462821241 675.0000171661382 373.7981458659753 " transform="rotate(75, 400, 400)"></path><path d="M136.00000183105476 433.88621831236435C146.00000210848728 417.53621785876214 164.00000260786584 360.50621627656443 184.00000316273093 355.4062161350738C204.00000371759597 350.30621599358324 212.000003939542 403.2562174625885 232.00000449440708 409.4062176332095C252.00000504927215 415.5562178038305 260.0000052712182 377.5762167501418 280.0000058260833 384.92621695405467C300.0000063809483 392.2762171579676 308.00000660289436 449.18621873683617 328.00000715775946 444.6862186119915C348.00000771262455 440.18621848714685 356.00000793457053 364.67621639225376 376.0000084894356 363.3262163548004C396.00000904430067 361.976216317347 404.0000092662467 434.15621831985504 424.0000098211118 438.2062184322152C444.0000103759769 442.2562185445754 452.0000105979229 381.4162168566759 472.000011152788 382.76621689412923C492.000011707653 384.11621693158264 500.00001192959905 443.7862185870226 520.0000124844642 444.6862186119915C540.0000130393292 445.58621863696044 548.0000132612753 387.2362170181416 568.0000138161404 387.0862170139801C588.0000143710055 386.9362170098186 596.0000145929514 446.5162186627617 616.0000151478165 443.9662185920164C636.0000157026815 441.41621852127105 654.00001620206 389.24621707390554 664.0000164794926 374.8462166744027 " transform="rotate(72, 400, 400)"></path><path d="M146.9999864959717 432.4743004966352C156.5833200951779 416.80555006193305 173.83332057374906 362.1517985456602 192.9999877721614 357.26429841006507C212.16665497057375 352.3767982744699 219.8333218499387 403.12054968226664 238.99998904835104 409.01429984577845C258.1666562467634 414.9080500092902 265.8333231261284 378.51054899950515 284.9999903245407 385.55429919492167C304.1666575229531 392.59804939033825 311.83332440231806 447.13680090342064 330.9999916007304 442.82430078377786C350.1666587991428 438.5118006641351 357.83332567850766 366.14804865652917 376.99999287692003 364.85429862063637C396.1666600753324 363.5605485847435 403.8333269546974 432.73305050381373 422.99999415310975 436.61430061149224C442.1666613515221 440.49555071917075 449.83332823088705 382.1905491016003 468.9999954292994 383.48429913749317C488.16666262771173 384.778049173386 495.83332950707666 441.96180075984927 514.9999967054891 442.82430078377786C534.1666639039015 443.6868008077064 541.8333307832664 387.7680492563383 560.9999979816788 387.6242992523502C580.1666651800912 387.48054924836214 587.8333320594561 444.57805083243255 606.9999992578685 442.134300764635C626.1666664562807 439.6905506968374 643.4166669348518 389.6942993097788 653.000000534058 375.89429892692186 " transform="rotate(69, 400, 400)"></path><path d="M157.99998641967778 431.0623674221169C167.1666533406576 416.0748670063149 183.6666537984213 363.79736555596696 201.99998764038094 359.1223654262672C220.33332148234058 354.4473652965675 227.66665501912445 402.98486664315567 245.9999888610841 408.6223667995583C264.33332270304373 414.2598669559609 271.6666562398276 379.4448659900795 289.99999008178725 386.18236617699966C308.3333239237469 392.9198663639198 315.6666574605308 445.08736781121604 333.99999130249046 440.9623676967751C352.3333251444501 436.8373675823342 359.6666586812339 367.6198656620155 377.99999252319355 366.38236562768327C396.3333263651532 365.14486559335097 403.6666599019371 431.30986742898335 421.99999374389677 435.0223675319802C440.3333275858564 438.73486763497704 447.6666611226403 382.96486608773574 465.9999949645999 384.20236612206804C484.3333288065595 385.4398661564003 491.6666623433434 440.1373676738869 509.9999961853031 440.9623676967751C528.3333300272627 441.7873677196633 535.6666635640465 388.299866235746 553.9999974060063 388.1623662319313C572.3333312479659 388.0248662281166 579.6666647847499 442.6398677433144 597.9999986267094 440.3023676784645C616.3333324686689 437.9648676136147 632.8333329264326 390.14236628686297 641.9999998474125 376.942365920652 " transform="rotate(66, 400, 400)"></path><path d="M168.99998634338385 429.65043816229587C177.7499865861373 415.34418776539394 193.49998702309355 365.44293638097093 210.9999875086005 360.9804362571667C228.4999879941074 356.51793613336235 235.49998818831023 402.849187418742 252.99998867381714 408.23043756803537C270.49998915932406 413.6116877173288 277.49998935352687 380.3791867953511 294.9999898390338 386.81043697377487C312.4999903245407 393.24168715219866 319.4999905187435 443.0379385337087 336.99999100425043 439.10043842446964C354.49999148975735 435.1629383152306 361.49999168396016 369.0916864821991 378.9999921694671 367.9104364494274C396.49999265497405 366.7291864166557 403.4999928491768 429.88668816885024 420.9999933346837 433.43043826716536C438.4999938201907 436.97418836548053 445.4999940143935 383.73918688856844 462.9999944999004 384.9204369213401C480.4999949854073 386.10168695411187 487.4999951796101 438.31293840262185 504.99999566511707 439.10043842446964C522.4999961506239 439.88793844631743 529.4999963448267 388.83168702985097 546.9999968303338 388.70043702620967C564.4999973158407 388.5691870225683 571.4999975100434 440.7016884688935 588.9999979955503 438.4704384069914C606.4999984810572 436.23918834508925 622.2499989180135 390.5904370786444 630.999999160767 377.9904367290794 " transform="rotate(63, 400, 400)"></path><path d="M179.9999862670899 428.2385241612639C188.33331983161702 414.6135237832621 203.3333202477658 367.08852246476397 219.99998737682003 362.83852234685514C236.66665450587425 358.5885222289463 243.33332135749595 402.7135234531174 259.9999884865502 407.8385235953016C276.6666556156044 412.96352373748573 283.33332246722614 381.31352285941176 299.99998959628033 387.4385230293392C316.6666567253345 393.5635231992666 323.3333235769563 440.9885245149904 339.9999907060105 437.23852441095323C356.6666578350647 433.488524306916 363.3333246866864 370.5635225611718 379.9999918157406 369.4385225299606C396.6666589447948 368.3135224987495 403.33332579641655 428.46352416750614 419.9999929254708 431.83852426113964C436.666660054525 435.21352435477314 443.3333269061467 384.51352294819014 459.9999940352009 385.63852297940133C476.6666611642551 386.76352301061246 483.33332801587676 436.48852439014576 499.99999514493106 437.23852441095323C516.6666622739854 437.98852443176065 523.333329125607 389.36352308274496 539.9999962546613 389.23852307927706C556.6666633837156 389.1135230758091 563.3333302353371 438.76352445326165 579.9999973643913 436.63852439430724C596.6666644934455 434.5135243353528 611.6666649095944 391.03852312921487 619.9999984741214 379.03852279629587 " transform="rotate(60, 400, 400)"></path><path d="M190.99998619079594 426.8265872720484C198.9166530770967 413.88283691294663 213.16665347243807 368.7340856603734 228.99998724503956 364.69658554836C244.83332101764108 360.65908543634663 251.1666545266817 402.5778365993092 266.99998829928325 407.44658673438414C282.8333220718847 412.3153368694591 289.16665558092535 382.2478360352888 304.99998935352687 388.06658619671987C320.83332312612833 393.88533635815094 327.166656635169 438.9390876080885 342.9999904077705 435.3765875092532C358.833324180372 431.81408741041787 365.1666576894126 372.0353357519608 380.9999914620141 370.96658572231024C396.8333252346156 369.89783569265967 403.1666587436563 427.0403372779785 418.99999251625775 430.2465873669303C434.83332628885927 433.4528374558821 441.1666597978999 385.2878361196283 456.99999357050143 386.35658614927894C472.8333273431029 387.4253361789295 479.1666608521435 434.6640874894861 494.99999462474506 435.3765875092532C510.8333283973466 436.0890875290203 517.1666619063872 389.89533624745536 532.9999956789886 389.77658624416085C548.8333294515903 389.65783624086635 555.1666629606309 436.82533754944626 570.9999967332324 434.80658749343957C586.8333305058338 432.78783743743287 601.0833309011753 391.4865862916018 608.9999977874759 380.0865859753287 " transform="rotate(57, 400, 400)"></path><path d="M201.999986114502 425.4146770857137C209.49998632257638 413.15217674551207 222.99998669711033 370.37967555886377 237.99998711325912 366.5546754527458C252.99998752940792 362.72967534662786 258.99998769586745 402.4421764483818 273.99998811201624 407.05467657634756C288.9999885281651 411.6671767043133 294.99998869462456 383.18217591404675 309.9999891107734 388.69467606698146C324.9999895269222 394.2071762199161 330.99998969338174 436.8896774040675 345.99999010953053 433.5146773104341C360.9999905256793 430.1396772168006 366.9999906921388 373.50717564563075 381.99999110828765 372.49467561754074C396.99999152443644 371.48217558945066 402.99999169089597 425.6171770913317 417.99999210704476 428.6546771756019C432.99999252319355 431.692177259872 438.99999268965314 386.06217599394733 453.99999310580193 387.07467602203735C468.9999935219507 388.0871760501274 474.9999936884102 432.8396772917074 489.99999410455905 433.5146773104341C504.9999945207079 434.18967732916076 510.9999946871674 390.4271761150466 525.9999951033162 390.3146761119255C540.9999955194651 390.2021761088044 546.9999956859245 434.88717734851167 561.9999961020733 432.9746772954527C576.9999965182221 431.0621772423937 590.499996892756 391.93467615686956 597.9999971008303 381.1346758572424 " transform="rotate(54, 400, 400)"></path><path d="M212.99998603820805 424.00273828914953C220.08331956805608 412.42148796784795 232.8333199217826 372.0252368471246 246.99998698147868 368.41273674690206C261.16665404117475 364.80023664667954 266.8333208650532 402.30648768722494 280.9999879247493 406.6627378080815C295.16665498444536 411.01898792893803 300.83332180832383 384.11648718257516 314.99998886801995 389.3227373270135C329.166655927716 394.5289874714518 334.83332275159444 434.84023858981703 348.99998981129056 431.65273850138544C363.1666568709866 428.4652384129538 368.83332369486504 374.9789869290712 382.99999075456117 374.02273690254174C397.16665781425723 373.0664868760122 402.8333246381357 424.19398829445544 416.9999916978318 427.0627383740439C431.1666587575279 429.93148845363237 436.8333255814063 386.8364872580368 450.99999264110244 387.79273728456633C465.1666597007985 388.7489873110958 470.8333265246769 431.0152384836991 484.99999358437304 431.65273850138544C499.16666064406917 432.29023851907175 504.8333274679476 390.9589873724084 518.9999945276437 390.85273736946067C533.1666615873398 390.74648736651295 538.8333284112182 432.94898853734765 552.9999954709143 431.1427384872364C567.1666625306103 429.3364884371251 579.9166628843368 392.38273741190784 586.9999964141849 382.18273712892665 " transform="rotate(51, 400, 400)"></path><path d="M223.9999859619141 422.5908147513744C230.6666528135358 411.69081444897296 242.66665314645485 373.67081339417444 255.99998684969822 370.2708132998474C269.3333205529416 366.87081320552034 274.66665403423895 402.1708141848572 287.99998773748234 406.27081429860453C301.3333214407257 410.3708144123519 306.6666549220231 385.0508137098927 319.99998862526644 389.9508138458346C333.33332232850984 394.8508139817766 338.6666558098072 432.7908150343556 351.99998951305054 429.79081495112587C365.33332321629393 426.7908148678961 370.6666566975913 376.4508134713007 383.9999904008347 375.55081344633174C397.3333241040781 374.65081342136284 402.66665758537545 422.7708147563682 415.99999128861884 425.470814831275C429.3333249918621 428.17081490618176 434.66665847315954 387.6108137809154 447.9999921764029 388.51081380588437C461.3333258796463 389.4108138308533 466.6666593609436 429.1908149344799 479.99999306418704 429.79081495112587C493.33332676743044 430.3908149677718 498.6666602487278 391.4908138885592 511.99999395197113 391.3908138857849C525.3333276552146 391.29081388301057 530.666661136512 431.0108149849726 543.9999948397553 429.3108149378091C557.3333285429986 427.61081489064554 569.3333288759177 392.8308139257352 575.9999957275394 383.2308136594 " transform="rotate(48, 400, 400)"></path><path d="M234.99998588562016 421.178887398902C241.2499860590155 410.9601371154007 252.49998637112708 375.31638612652705 264.99998671791775 372.12888603809546C277.4999870647084 368.9413859496638 282.49998720342467 402.0351368677921 294.99998755021534 405.87888697443026C307.499987897006 409.7226370810684 312.4999880357223 385.98513642251294 324.999988382513 390.5788865499585C337.49998872930365 395.17263667740406 342.49998886801995 430.7413876641969 354.9999892148106 427.928887586169C367.4999895616013 425.1163875081411 372.49998970031754 377.92263619883295 384.9999900471082 377.07888617542454C397.4999903938989 376.2351361520162 402.49999053261513 421.34763740358375 414.9999908794058 423.87888747380885C427.49999122619647 426.41013754403394 432.4999913649127 388.38513648909674 444.9999917117034 389.2288865125051C457.49999205849406 390.0726365359135 462.4999921972103 427.36638757056346 474.999992544001 427.928887586169C487.4999928907917 428.4913876017746 492.49999302950795 392.02263659001284 504.9999933762987 391.92888658741185C517.4999937230893 391.8351365848109 522.4999938618056 429.07263761790034 534.9999942085963 427.4788875736846C547.4999945553868 425.88513752946875 558.7499948674986 393.27888662486527 564.9999950408939 384.278886375176 " transform="rotate(45, 400, 400)"></path><path d="M245.9999858093262 419.7669714905215C251.83331930449518 410.2294712259202 262.33331959579937 376.9619703029715 273.9999865861373 373.9869702204353C285.66665357647526 371.01197013789914 290.33332037261044 401.8994709948189 301.9999873629484 405.4869710943478C313.6666543532864 409.0744711938767 318.3333211494216 386.91947057922494 329.9999881397595 391.20697069817413C341.66665513009747 395.49447081712333 346.33332192623266 428.69197173813 357.9999889165706 426.066971665304C369.66665590690855 423.4419715924779 374.3333227030438 379.39447037045693 385.99998969338174 378.60697034860914C397.6666566837197 377.81947032676135 402.3333234798548 419.924471494891 413.9999904701928 422.28697156043444C425.6666574605308 424.6494716259779 430.33332425666595 389.1594706413698 441.99999124700395 389.94697066321766C453.66665823734184 390.73447068506545 458.3333250334771 425.54197165073873 469.999992023815 426.066971665304C481.66665901415297 426.5919716798692 486.33332581028816 392.5544707355582 497.99999280062616 392.46697073313067C509.6666597909641 392.37947073070313 514.3333265870992 427.1344716949199 525.9999935774372 425.6469716536518C537.6666605677751 424.1594716123837 548.1666608590793 393.72697076808714 553.9999943542483 385.3269705350438 " transform="rotate(42, 400, 400)"></path><path d="M256.99998573303225 418.35503650865456C262.41665254997486 409.4987862629534 272.1666528204716 378.6075354059296 282.9999864543569 375.84503532928886C293.8333200882421 373.0825352526481 298.1666535417962 401.7637860483593 308.99998717568144 405.09503614077903C319.83332080956666 408.4262862331987 324.1666542631208 387.85378566245066 334.999987897006 391.8350357729035C345.8333215308913 395.81628588335633 350.1666549844454 426.6425367385768 360.99998861833063 424.2050366709526C371.8333222522159 421.76753660332844 376.16665570577 380.86628546859464 386.99998933965526 380.1350354483074C397.8333229735405 379.40378542802017 402.1666564270946 418.501286512712 412.9999900609798 420.69503657357376C423.83332369486504 422.8887866344355 428.1666571484192 389.9337857201566 438.9999907823044 390.66503574044384C449.83332441618967 391.39628576073113 454.16665786974374 423.7175366574278 464.999991503629 424.2050366709526C475.8333251375143 424.69253668447743 480.1666585910683 393.08628580761723 490.99999222495364 393.0050358053631C501.83332585883886 392.92378580310896 506.166659312393 425.1962866984531 516.9999929462782 423.8150366601327C527.8333265801634 422.4337866218124 537.5833268506601 394.1750358378227 542.9999936676028 386.3750356214253 " transform="rotate(39, 400, 400)"></path><path d="M267.9999856567383 416.94311297087944C272.99998579545456 408.76811274407834 281.9999860451438 380.25311195297945 291.99998632257643 377.70311188223417C301.9999866000089 375.1531118114889 305.99998671098194 401.62811254599154 315.9999869884145 404.703112631302C325.99998726584704 407.77811271661255 329.99998737682006 388.7881121897681 339.99998765425255 392.4631122917246C349.9999879316851 396.13811239368107 353.9999880426581 424.59311318311535 363.99998832009067 422.34311312069303C373.9999885975232 420.0931130582707 377.9999887084962 382.33811201082415 387.9999889859287 381.66311199209747C397.9999892633613 380.9881119733708 401.9999893743343 417.0781129746248 411.99998965176684 419.1031130308049C421.9999899291994 421.12811308698497 425.9999900401724 390.7081122430352 435.9999903176049 391.3831122617619C445.99999059503745 392.05811228048856 449.99999070601046 421.8931131082086 459.999990983443 422.34311312069303C469.99999126087556 422.7931131331775 473.9999913718486 393.61811232376806 483.9999916492811 393.5431123216873C493.9999919267137 393.4681123196066 497.99999203768664 423.2581131460781 507.9999923151192 421.98311311070546C517.9999925925517 420.7081130753328 526.999992842241 394.62311235165004 531.9999929809572 387.42311215189864 " transform="rotate(36, 400, 400)"></path><path d="M279.0000008392334 415.53117989636115C283.58333429972333 408.0374296884602 291.8333345286052 381.8986789632862 301.000001449585 379.56117889843637C310.1666683705648 377.2236788335865 313.8333351389567 401.49242950688057 323.0000020599366 404.31117958508185C332.16666898091637 407.1299296632832 335.83333574930833 389.7224291803425 345.00000267028815 393.0911792738026C354.166669591268 396.45992936726265 357.83333635965994 422.54368009091075 367.00000328063976 420.4811800336903C376.1666702016196 418.41867997646983 379.8333369700115 383.8099290163105 389.0000038909913 383.19117899914437C398.16667081197113 382.5724289819782 401.8333375803631 415.6549298997944 411.0000045013429 417.51117995129283C420.16667142232274 419.36743000279125 423.8333381907147 391.48242922917063 433.00000511169446 392.10117924633676C442.1666720326743 392.7199292635029 445.83333880106625 420.0686800222462 455.00000572204607 420.4811800336903C464.1666726430259 420.8936800451344 467.8333394114178 394.1499293031757 477.0000063323977 394.0811793012684C486.1666732533775 394.01242929936103 489.83334002176946 421.31993005695995 499.0000069427492 420.151180024535C508.166673863729 418.9824299921101 516.4166740926108 395.0711793287342 521.0000075531008 388.47117914562875 " transform="rotate(33, 400, 400)"></path><path d="M290.00000076293946 414.119262080632C294.16666754520304 407.306761891631 301.66666775327747 383.544261232382 310.00000131780456 381.41926117342757C318.33333488233166 379.29426111447316 321.6666683081425 401.3567617265587 330.0000018726696 403.9192617976508C338.33333543719675 406.48176186874286 341.6666688630076 390.65676142970585 350.0000024275347 393.7192615146696C358.3333359920618 396.7817615996333 361.66666941787264 420.4942622574952 370.0000029823998 418.6192622054766C378.3333365469269 416.744262153458 381.66666997273774 385.2817612805859 390.00000353726483 384.71926126498033C398.3333371017919 384.1567612493747 401.66667052760283 414.2317620837531 410.0000040921299 415.9192621305698C418.333337656657 417.60676217738654 421.6666710824679 392.2567614740951 430.00000464699497 392.8192614897007C438.3333382115221 393.38176150530626 441.6666716373329 418.2442621950729 450.00000520186006 418.6192622054766C458.3333387663872 418.9942622158803 461.666672192198 394.68176154137245 470.00000575672516 394.6192615396385C478.3333393212523 394.55676153790455 481.6666727470631 419.3817622266308 490.0000063115902 418.31926219715365C498.3333398761173 417.2567621676764 505.8333400841917 395.51926156460746 510.00000686645524 389.51926139814793 " transform="rotate(30, 400, 400)"></path><path d="M301.00000068664554 412.7073347281596C304.75000079068275 406.57608455805877 311.5000009779497 385.1898339647346 319.00000118602406 383.2773339116756C326.5000013940985 381.36483385861663 329.5000014773283 401.22108440949364 337.00000168540265 403.5273344734765C344.5000018934771 405.8335845374594 347.5000019767068 391.5910841423261 355.00000218478124 394.34733421879343C362.50000239285566 397.1035842952608 365.5000024760854 418.4448348873365 373.00000268415977 416.7573348405198C380.5000028922342 415.069834793703 383.50000297546393 386.75358400811814 391.00000318353835 386.2473339940731C398.5000033916127 385.74108398002807 401.5000034748425 412.8085847309686 409.00000368291694 414.32733477310364C416.5000038909913 415.8460848152387 419.5000039742211 393.0310841822764 427.00000418229547 393.5373341963214C434.5000043903699 394.0435842103664 437.50000447359963 416.41983483115644 445.00000468167406 416.7573348405198C452.5000048897485 417.0948348498831 455.5000049729782 395.2135842428261 463.00000518105264 395.1573342412655C470.50000538912707 395.10108423970496 473.5000054723568 417.4435848595586 481.0000056804312 416.4873348330291C488.5000058885056 415.5310848064996 495.25000607577255 395.96733426373754 499.0000061798097 390.56733411392395 " transform="rotate(27, 400, 400)"></path><path d="M312.00000061035155 411.2954121440588C315.33333403616246 405.84541199285803 321.3333342026219 386.83541146545883 328.0000010542436 385.1354114182953C334.6666679058653 383.43541137113175 337.333334646514 401.08541186080015 344.0000014981357 403.1354119176738C350.6666683497574 405.1854119745475 353.3333350904061 392.52541162331795 360.0000019420278 394.9754116912889C366.6666687936495 397.4254117592599 369.33333553429816 416.39541228554936 376.0000023859198 414.8954122439345C382.6666692375415 413.3954122023196 385.3333359781902 388.22541150402196 392.0000028298119 387.77541149153745C398.6666696814336 387.325411479053 401.33333642208225 411.38541214655567 408.00000327370395 412.7354121840091C414.6666701253256 414.0854122214625 417.3333368659743 393.80541165882926 424.000003717596 394.25541167131377C430.6666705692177 394.7054116837982 433.33333730986635 414.59541223561155 440.00000416148805 414.8954122439345C446.66667101310975 415.1954122522575 449.3333377537584 395.7454117126512 456.0000046053801 395.69541171126406C462.6666714570018 395.6454117098769 465.3333381976505 415.5054122608579 472.0000050492722 414.6554122372761C478.66667190089385 413.80541221369435 484.6666720673534 396.41541173123915 488.0000054931642 391.61541159807155 " transform="rotate(24, 400, 400)"></path><path d="M323.0000005340576 409.88348288423776C325.9166672816421 405.11473275193714 331.1666674272942 388.4809822904628 337.0000009224632 386.9934822491947C342.83333441763216 385.50598220792665 345.1666678156997 400.9497326363865 351.0000013108687 402.74348268615097C356.8333348060377 404.5372327359154 359.16666820410535 393.4597324285895 365.0000016992743 395.6034824880641C370.8333351944433 397.7472325475387 373.16666859251086 414.345983008042 379.00000208767983 413.03348297162904C384.8333355828488 411.720982935216 387.1666689809164 389.6972323242055 393.0000024760854 389.3034823132816C398.83333597125437 388.9097323023577 401.16666936932194 409.96223288642256 407.00000286449097 411.1434829191943C412.83333635965994 412.324732951966 415.1666697577275 394.57973245966195 421.0000032528965 394.97348247058585C426.83333674806545 395.3672324815098 429.1666701461331 412.77098296434644 435.00000364130204 413.03348297162904C440.833337136471 413.29598297891164 443.16667053453864 396.27723250675615 449.0000040297076 396.2334825055424C454.8333375248766 396.1897325043286 457.16667092294415 413.567232986437 463.0000044181131 412.82348296580295C468.8333379132821 412.0797329451689 474.0833380589342 396.8634825230206 477.0000048065187 392.66348240649893 " transform="rotate(21, 400, 400)"></path><path d="M334.0000004577637 408.4715526707425C336.5000005271218 404.38405255734193 341.00000065196645 390.12655216179246 346.00000079068275 388.85155212641985C351.000000929399 387.5765520910472 353.0000009848855 400.8140524582985 358.0000011236018 402.35155250095374C363.00000126231805 403.889052543609 365.00000131780456 394.3940522801868 370.0000014565208 396.23155233116506C375.0000015952371 398.06905238214324 377.00000165072356 412.2965527768604 382.00000178943986 411.17155274564925C387.00000192815617 410.04655271443806 389.0000019836426 391.1690521907148 394.00000212235886 390.83155218135147C399.00000226107517 390.49405217198813 401.0000023165617 408.5390526726151 406.0000024552779 409.5515527007052C411.0000025939942 410.5640527287952 413.00000264948073 395.35405230682034 418.000002788197 395.6915523161837C423.0000029269132 396.029052325547 425.0000029823998 410.946552739407 430.00000312111604 411.17155274564925C435.0000032598323 411.3965527518915 437.00000331531885 396.80905234718676 442.0000034540351 396.7715523461464C447.00000359275134 396.734052345106 449.00000364823785 411.6290527583418 454.00000378695415 410.99155274065544C459.0000039256704 410.35405272296913 463.50000405051503 397.3115523611277 466.00000411987315 393.71155226125205 " transform="rotate(18, 400, 400)"></path><path d="M344.99999656677244 407.059631040316C347.08332995790425 403.6533809458155 350.83333006194147 391.772130616191 354.99999684420504 390.7096305867138C359.16666362646856 389.64713055723655 360.833330339374 400.67838086327936 364.99999712163753 401.95963089882537C369.1666639039011 403.24088093437143 370.8333306168065 395.3283807148529 374.9999973990701 396.8596307573348C379.16666418133366 398.39088079981667 380.83333089423905 410.2471311287476 384.99999767650263 409.3096311027383C389.16666445876615 408.37213107672903 390.8333311716716 392.64088064029295 394.9999979539351 392.35963063249017C399.1666647361987 392.0783806246874 400.83333144910415 407.11588104187655 404.9999982313677 407.9596310652849C409.16666501363125 408.8033810886933 410.8333317265367 396.12838073704756 414.9999985088002 396.40963074485035C419.1666652910638 396.69088075265313 420.8333320039692 409.12213109753645 424.99999878623277 409.3096311027383C429.16666556849634 409.49713110794016 430.83333228140174 397.3408807706862 434.9999990636653 397.30963076981925C439.1666658459289 397.2783807689523 440.8333325588343 409.6908811133154 444.9999993410978 409.1596310985768C449.1666661233614 408.62838108383824 452.9166662273986 397.7596307823037 454.99999961853035 394.75963069907397 " transform="rotate(15, 400, 400)"></path><path d="M355.9999964904785 405.64770559519224C357.66666320338396 402.9227055195919 360.6666632866137 393.41770525589226 363.99999671242455 392.56770523231046C367.3333301382354 391.7177052087287 368.66666350855974 400.5427054535629 371.9999969343706 401.5677054819998C375.33333036018144 402.5927055104366 376.6666637305058 396.2627053348218 379.9999971563166 397.48770536880727C383.3333305821275 398.7127054027928 384.6666639524518 408.1977056659375 387.9999973782626 407.4477056451301C391.3333308040735 406.6977056243227 392.66666417439785 394.1127052751738 395.99999760020864 393.8877052689316C399.33333102601955 393.6627052626893 400.6666643963439 405.6927055964407 403.9999978221547 406.3677056151674C407.33333124796553 407.04270563389406 408.6666646182899 396.90270535257747 411.9999980441007 397.1277053588197C415.33333146991157 397.352705365062 416.6666648402359 407.2977056409686 419.99999826604676 407.4477056451301C423.3333316918576 407.5977056492916 424.66666506218195 397.8727053794884 427.9999984879928 397.84770537879484C431.33333191380365 397.82270537810126 432.666665284128 407.75270565359176 435.99999870993884 407.3277056418009C439.33333213574963 406.90270563001 442.3333322189794 398.2077053887824 443.9999989318849 395.8077053221986 " transform="rotate(12, 400, 400)"></path><path d="M366.9999964141846 404.23577824271985C368.2499964488636 402.19202818601957 370.499996511286 395.06327798824486 372.9999965806441 394.42577797055856C375.49999665000223 393.78827795287225 376.49999667774546 400.4070281364979 378.99999674710364 401.1757781578255C381.49999681646176 401.9445281791531 382.49999684420504 397.197028047442 384.9999969135631 398.11577807293116C387.4999969829213 399.03452809842025 388.4999970106645 406.1482782957788 390.9999970800227 405.58577828017326C393.4999971493808 405.0232782645677 394.49999717712404 395.58452800270607 396.99999724648217 395.4157779980244C399.49999731584035 395.24702799334267 400.4999973435836 404.26952824365617 402.9999974129417 404.77577825770123C405.4999974822998 405.28202827174624 406.4999975100431 397.6770280607588 408.9999975794012 397.84577806544047C411.49999764875935 398.01452807012214 412.49999767650263 405.47327827705215 414.99999774586075 405.58577828017326C417.4999978152189 405.69827828329437 418.49999784296216 398.404528080942 420.9999979123203 398.3857780804218C423.4999979816784 398.3670280799016 424.4999980094217 405.81452828651953 426.9999980787798 405.4957782776764C429.49999814813793 405.17702826883317 431.74999821056025 398.6557780879125 432.99999824523934 396.85577803797463 " transform="rotate(9, 400, 400)"></path><path d="M378.0000001525879 402.82385279759615C378.8333335090406 401.46135275979594 380.3333335506555 396.7088526279461 382.0000002635609 396.28385261615523C383.66666697646633 395.85885260436436 384.3333336616285 400.27135272678146 386.0000003745339 400.78385274099986C387.66666708743935 401.2963527552183 388.3333337726015 398.1313526674109 390.0000004855069 398.74385268440363C391.66666719841237 399.3563527013964 392.33333388357454 404.09885283296876 394.00000059647994 403.72385282256505C395.6666673093854 403.34885281216134 396.33333399454756 397.0563526375869 398.00000070745295 396.94385263446577C399.6666674203584 396.83135263134466 400.3333341055206 402.8463527982203 402.000000818426 403.18385280758366C403.6666675313314 403.52135281694706 404.33333421649354 398.45135267628876 406.000000929399 398.5638526794099C407.66666764230445 398.676352682531 408.33333432746656 403.6488528204843 410.000001040372 403.72385282256505C411.66666775327747 403.7988528246458 412.3333344384396 398.93635268974424 414.00000115134503 398.92385268939745C415.6666678642505 398.91135268905066 416.3333345494126 403.8763528267959 418.00000126231805 403.66385282090044C419.66666797522345 403.451352815005 421.16666801683834 399.1038526943912 422.00000137329107 397.90385266109934 " transform="rotate(6, 400, 400)"></path><path d="M389.00000007629393 401.41192544512376C389.4166667545203 400.7306754262236 390.1666667753277 398.35442536029876 391.00000013178044 398.1419253544033C391.83333348823317 397.92942534850783 392.1666668308143 400.13567540971644 393.00000018726695 400.39192541682564C393.8333335437197 400.64817542393484 394.16666688630073 399.06567538003117 395.00000024275346 399.37192538852753C395.8333335992062 399.6781753970239 396.1666669417873 402.04942546281006 397.00000029823997 401.8619254576082C397.8333336546927 401.67442545240635 398.16666699727375 398.5281753651191 399.0000003537265 398.47192536355857C399.8333337101792 398.415675361998 400.16666705276026 401.42317544543585 401.000000409213 401.5919254501175C401.8333337656657 401.7606754547992 402.16666710824677 399.22567538447004 403.0000004646995 399.2819253860306C403.8333338211522 399.33817538759115 404.1666671637333 401.82442545656784 405.000000520186 401.8619254576082C405.83333387663873 401.8994254586486 406.1666672192198 399.4681753911978 407.0000005756725 399.4619253910244C407.83333393212524 399.455675390851 408.1666672747063 401.93817545972365 409.000000631159 401.83192545677593C409.8333339876117 401.7256754538282 410.5833340084192 399.5519253935213 411.00000068664554 398.95192537687535 " transform="rotate(3, 400, 400)"></path></g></svg>